<svg width="790" height="451" viewBox="0 0 790 451" fill="none" xmlns="http://www.w3.org/2000/svg">
<g clip-path="url(#clip0_7_192)">
<path d="M731.965 434.066C732.389 434.085 732.81 433.974 733.169 433.746C733.529 433.519 733.809 433.186 733.974 432.794C734.138 432.401 734.177 431.968 734.087 431.552C733.996 431.137 733.78 430.759 733.468 430.47L733.326 429.905C733.344 429.86 733.363 429.815 733.382 429.77C733.81 428.759 734.527 427.897 735.444 427.292C736.36 426.687 737.435 426.367 738.533 426.371C739.63 426.375 740.703 426.703 741.614 427.315C742.526 427.926 743.237 428.794 743.658 429.808C745.338 433.855 747.478 437.91 748.005 442.19C748.237 444.081 748.139 445.999 747.715 447.857C751.663 439.247 753.712 429.888 753.725 420.416C753.726 418.04 753.594 415.664 753.33 413.302C753.111 411.366 752.808 409.443 752.421 407.534C750.305 397.177 745.763 387.469 739.167 379.208C735.974 377.466 733.392 374.787 731.769 371.533C731.181 370.363 730.766 369.114 730.535 367.825C730.895 367.873 731.893 362.388 731.622 362.051C732.123 361.29 733.022 360.911 733.57 360.168C736.296 356.472 740.052 357.117 742.012 362.14C746.201 364.254 746.241 367.76 743.671 371.131C742.036 373.277 741.812 376.179 740.377 378.476C740.525 378.665 740.678 378.848 740.826 379.037C743.524 382.506 745.875 386.231 747.847 390.159C747.367 385.759 747.939 381.307 749.516 377.171C751.114 373.316 754.109 370.07 756.747 366.737C757.444 365.842 758.392 365.173 759.469 364.817C760.546 364.46 761.705 364.43 762.799 364.732C763.894 365.033 764.874 365.653 765.616 366.511C766.358 367.37 766.829 368.429 766.969 369.555C766.975 369.604 766.98 369.654 766.985 369.703C766.594 369.924 766.21 370.158 765.835 370.406C765.364 370.721 764.998 371.171 764.787 371.697C764.576 372.223 764.528 372.801 764.651 373.355C764.774 373.908 765.061 374.412 765.474 374.799C765.888 375.187 766.409 375.44 766.969 375.527L767.027 375.536C766.887 376.948 766.64 378.347 766.289 379.721C769.672 392.807 762.367 397.573 751.937 397.787C751.706 397.905 751.482 398.023 751.252 398.135C753.232 403.748 754.475 409.595 754.947 415.528C755.215 419.028 755.199 422.545 754.9 426.043L754.918 425.919C755.674 422.029 757.749 418.52 760.792 415.983C765.313 412.269 771.7 410.902 776.577 407.917C777.095 407.584 777.697 407.406 778.313 407.405C778.929 407.403 779.533 407.578 780.053 407.908C780.573 408.238 780.987 408.71 781.248 409.269C781.508 409.827 781.604 410.448 781.523 411.058L781.503 411.189C780.776 411.485 780.068 411.826 779.383 412.21C778.992 412.431 778.608 412.666 778.233 412.914C777.761 413.229 777.396 413.679 777.185 414.205C776.974 414.731 776.926 415.309 777.049 415.862C777.172 416.415 777.458 416.919 777.872 417.307C778.286 417.694 778.807 417.948 779.367 418.034L779.425 418.043C779.466 418.049 779.501 418.055 779.543 418.061C778.301 421.027 776.557 423.757 774.389 426.131C772.273 437.554 763.186 438.638 753.466 435.312H753.46C752.393 439.946 750.848 444.457 748.849 448.772H732.377C732.318 448.589 732.265 448.4 732.212 448.217C733.737 448.313 735.267 448.222 736.77 447.946C735.548 446.446 734.325 444.935 733.103 443.435C733.076 443.407 733.05 443.378 733.027 443.347C732.407 442.579 731.781 441.818 731.161 441.05L731.161 441.049C731.128 438.697 731.398 436.349 731.965 434.066Z" fill="#F2F2F2"/>
<path d="M717.293 49.1341H199.266C199.023 49.1341 198.791 49.0378 198.619 48.8664C198.448 48.695 198.352 48.4625 198.352 48.2201C198.352 47.9777 198.448 47.7451 198.619 47.5737C198.791 47.4023 199.023 47.306 199.266 47.306H717.293C717.536 47.306 717.768 47.4023 717.939 47.5737C718.111 47.7451 718.207 47.9777 718.207 48.2201C718.207 48.4625 718.111 48.695 717.939 48.8664C717.768 49.0378 717.536 49.1341 717.293 49.1341Z" fill="#E6E6E6"/>
<path d="M225.184 21.6935C229.453 21.6935 232.914 18.1556 232.914 13.7914C232.914 9.42718 229.453 5.88927 225.184 5.88927C220.915 5.88927 217.454 9.42718 217.454 13.7914C217.454 18.1556 220.915 21.6935 225.184 21.6935Z" fill="#E6E6E6"/>
<path d="M251.887 21.6935C256.156 21.6935 259.617 18.1556 259.617 13.7914C259.617 9.42718 256.156 5.88927 251.887 5.88927C247.618 5.88927 244.157 9.42718 244.157 13.7914C244.157 18.1556 247.618 21.6935 251.887 21.6935Z" fill="#E6E6E6"/>
<path d="M278.59 21.6935C282.859 21.6935 286.32 18.1556 286.32 13.7914C286.32 9.42718 282.859 5.88927 278.59 5.88927C274.321 5.88927 270.86 9.42718 270.86 13.7914C270.86 18.1556 274.321 21.6935 278.59 21.6935Z" fill="#E6E6E6"/>
<path d="M309.039 20.037C308.917 20.0372 308.797 20.0129 308.684 19.9657C308.572 19.9185 308.471 19.8492 308.386 19.7621L303.17 14.4303C303.003 14.2596 302.909 14.0302 302.909 13.7912C302.909 13.5523 303.003 13.3228 303.17 13.1521L308.386 7.82079C308.556 7.65024 308.786 7.55374 309.027 7.55225C309.268 7.55076 309.5 7.64442 309.672 7.81286C309.844 7.98129 309.943 8.21089 309.947 8.45174C309.951 8.69259 309.859 8.92522 309.692 9.09905L305.102 13.7912L309.692 18.4838C309.818 18.6124 309.903 18.7753 309.937 18.9521C309.971 19.1288 309.951 19.3116 309.882 19.4774C309.812 19.6432 309.695 19.7848 309.545 19.8843C309.395 19.9839 309.219 20.037 309.039 20.037Z" fill="#E6E6E6"/>
<path d="M317.803 20.037C317.624 20.037 317.448 19.9839 317.298 19.8844C317.148 19.7848 317.031 19.6432 316.961 19.4774C316.891 19.3116 316.872 19.1288 316.906 18.9521C316.939 18.7753 317.024 18.6124 317.15 18.4838L321.74 13.7912L317.15 9.09905C317.065 9.01353 316.997 8.91196 316.951 8.80019C316.906 8.68843 316.882 8.56869 316.883 8.44791C316.884 8.32712 316.909 8.20769 316.956 8.0965C317.003 7.98531 317.072 7.88458 317.158 7.80012C317.244 7.71566 317.347 7.64915 317.459 7.60443C317.571 7.55972 317.691 7.53768 317.812 7.53961C317.933 7.54153 318.052 7.56737 318.162 7.61563C318.273 7.6639 318.373 7.73363 318.457 7.8208L323.672 13.1521C323.839 13.3228 323.933 13.5523 323.933 13.7912C323.933 14.0302 323.839 14.2596 323.672 14.4303L318.457 19.7621C318.372 19.8492 318.27 19.9185 318.158 19.9657C318.046 20.0129 317.925 20.0372 317.803 20.037Z" fill="#E6E6E6"/>
<path d="M671.098 6.80414H661.4C661.137 6.80406 660.876 6.85579 660.633 6.95636C660.39 7.05693 660.17 7.20438 659.984 7.39028C659.798 7.57618 659.651 7.79688 659.55 8.03979C659.449 8.28269 659.398 8.54304 659.398 8.80594V18.5133C659.398 18.7762 659.449 19.0365 659.55 19.2794C659.651 19.5223 659.798 19.7431 659.984 19.929C660.17 20.1149 660.39 20.2623 660.633 20.3629C660.876 20.4634 661.137 20.5152 661.4 20.5151H671.098C671.63 20.5156 672.14 20.3051 672.517 19.9299C672.894 19.5546 673.107 19.0452 673.109 18.5133V8.80594C673.107 8.27403 672.894 7.76459 672.517 7.38933C672.14 7.01408 671.63 6.80363 671.098 6.80414Z" fill="#E6E6E6"/>
<path d="M647.332 6.80414H637.634C637.371 6.80406 637.111 6.85579 636.868 6.95636C636.625 7.05693 636.404 7.20438 636.218 7.39028C636.032 7.57618 635.885 7.79688 635.784 8.03979C635.684 8.28269 635.632 8.54304 635.632 8.80594V18.5133C635.632 18.7762 635.684 19.0365 635.784 19.2794C635.885 19.5223 636.032 19.7431 636.218 19.929C636.404 20.1149 636.625 20.2623 636.868 20.3629C637.111 20.4634 637.371 20.5152 637.634 20.5151H647.332C647.864 20.5156 648.374 20.3051 648.751 19.9299C649.128 19.5546 649.341 19.0452 649.343 18.5133V8.80594C649.341 8.27403 649.128 7.76459 648.751 7.38933C648.374 7.01408 647.864 6.80363 647.332 6.80414Z" fill="#E6E6E6"/>
<path d="M693.492 7.26117H683.794C683.531 7.26109 683.271 7.31282 683.028 7.41339C682.785 7.51397 682.564 7.66141 682.378 7.84731C682.192 8.03321 682.045 8.25392 681.944 8.49682C681.844 8.73973 681.792 9.00007 681.792 9.26297V18.9703C681.792 19.2332 681.844 19.4936 681.944 19.7365C682.045 19.9794 682.192 20.2001 682.378 20.386C682.564 20.5719 682.785 20.7193 683.028 20.8199C683.271 20.9205 683.531 20.9722 683.794 20.9721H693.492C694.024 20.9726 694.535 20.7622 694.912 20.3869C695.289 20.0117 695.501 19.5022 695.503 18.9703V9.26297C695.501 8.73107 695.289 8.22162 694.912 7.84637C694.535 7.47111 694.024 7.26066 693.492 7.26117Z" fill="#E6E6E6"/>
<path d="M413.994 21.5019H350.924C348.742 21.5019 346.65 20.6352 345.107 19.0924C343.564 17.5496 342.697 15.4572 342.697 13.2753C342.697 11.0935 343.564 9.00106 345.107 7.45828C346.65 5.9155 348.742 5.04877 350.924 5.04877H413.994C416.176 5.04877 418.268 5.9155 419.811 7.45828C421.354 9.00106 422.221 11.0935 422.221 13.2753C422.221 15.4572 421.354 17.5496 419.811 19.0924C418.268 20.6352 416.176 21.5019 413.994 21.5019Z" fill="#E6E6E6"/>
<path d="M499.002 21.5019H435.932C433.75 21.5019 431.657 20.6352 430.115 19.0924C428.572 17.5496 427.705 15.4572 427.705 13.2753C427.705 11.0935 428.572 9.00106 430.115 7.45828C431.657 5.9155 433.75 5.04877 435.932 5.04877H499.002C501.184 5.04877 503.276 5.9155 504.819 7.45828C506.362 9.00106 507.229 11.0935 507.229 13.2753C507.229 15.4572 506.362 17.5496 504.819 19.0924C503.276 20.6352 501.184 21.5019 499.002 21.5019Z" fill="#E6E6E6"/>
<path d="M610.507 21.0449H523.692C520.902 21.0449 518.225 19.9363 516.252 17.9629C514.279 15.9896 513.17 13.3132 513.17 10.5224C513.17 7.73171 514.279 5.05529 516.252 3.08195C518.225 1.10861 520.902 1.6634e-07 523.692 0H610.507C613.298 1.6634e-07 615.974 1.10861 617.948 3.08195C619.921 5.05529 621.03 7.73171 621.03 10.5224C621.03 13.3132 619.921 15.9896 617.948 17.9629C615.974 19.9363 613.298 21.0449 610.507 21.0449Z" fill="#004AAD"/>
<path d="M611.736 16.7838C611.57 16.784 611.407 16.7515 611.254 16.6883C611.101 16.625 610.963 16.5322 610.846 16.4152L600.81 6.37925C600.693 6.26243 600.601 6.12374 600.537 5.9711C600.474 5.81847 600.442 5.65489 600.442 5.48968C600.442 5.32447 600.474 5.16087 600.537 5.00824C600.601 4.85561 600.693 4.71693 600.81 4.60011C600.927 4.48329 601.066 4.39062 601.218 4.32739C601.371 4.26417 601.534 4.23163 601.7 4.23163C601.865 4.23163 602.029 4.26417 602.181 4.32739C602.334 4.39061 602.472 4.48327 602.589 4.60009L612.625 14.6361C612.801 14.8121 612.921 15.0362 612.969 15.2803C613.018 15.5243 612.993 15.7773 612.898 16.0071C612.803 16.237 612.641 16.4335 612.435 16.5718C612.228 16.71 611.984 16.7838 611.736 16.7838Z" fill="white"/>
<path d="M601.729 16.7838C601.894 16.784 602.058 16.7515 602.211 16.6883C602.363 16.625 602.502 16.5322 602.619 16.4152L612.655 6.37925C612.89 6.14314 613.022 5.82342 613.021 5.49023C613.021 5.15705 612.888 4.83761 612.653 4.60202C612.417 4.36642 612.098 4.2339 611.765 4.23354C611.431 4.23318 611.112 4.365 610.876 4.60009L600.84 14.6361C600.664 14.8121 600.544 15.0362 600.495 15.2803C600.447 15.5243 600.472 15.7773 600.567 16.0071C600.662 16.237 600.823 16.4335 601.03 16.5718C601.237 16.71 601.48 16.7838 601.729 16.7838Z" fill="white"/>
<path d="M506.389 89.5078H409.611C409.337 89.5084 409.065 89.4548 408.811 89.3502C408.557 89.2456 408.327 89.0919 408.133 88.8981C407.938 88.7042 407.784 88.474 407.679 88.2205C407.574 87.967 407.52 87.6952 407.52 87.4208C407.52 87.1464 407.574 86.8746 407.679 86.6211C407.784 86.3676 407.938 86.1374 408.133 85.9435C408.327 85.7496 408.557 85.596 408.811 85.4914C409.065 85.3868 409.337 85.3332 409.611 85.3338H506.389C506.942 85.3349 507.472 85.5553 507.862 85.9466C508.253 86.3379 508.472 86.868 508.472 87.4208C508.472 87.9736 508.253 88.5037 507.862 88.895C507.472 89.2863 506.942 89.5067 506.389 89.5078Z" fill="#6C63FF"/>
<path d="M530.885 108.588H385.116C384.841 108.589 384.57 108.535 384.316 108.43C384.062 108.326 383.832 108.172 383.637 107.978C383.443 107.784 383.289 107.554 383.184 107.301C383.079 107.047 383.024 106.775 383.024 106.501C383.024 106.227 383.079 105.955 383.184 105.701C383.289 105.448 383.443 105.218 383.637 105.024C383.832 104.83 384.062 104.676 384.316 104.572C384.57 104.467 384.841 104.413 385.116 104.414H530.885C531.437 104.415 531.967 104.636 532.357 105.027C532.748 105.418 532.967 105.948 532.967 106.501C532.967 107.054 532.748 107.584 532.357 107.975C531.967 108.367 531.437 108.587 530.885 108.588Z" fill="#F2F2F2"/>
<path d="M530.887 123.491H385.113C384.559 123.491 384.027 123.711 383.636 124.103C383.244 124.495 383.024 125.026 383.024 125.58C383.024 126.134 383.244 126.665 383.636 127.057C384.027 127.448 384.559 127.668 385.113 127.668H530.887C531.441 127.668 531.973 127.448 532.364 127.057C532.756 126.665 532.976 126.134 532.976 125.58C532.976 125.026 532.756 124.495 532.364 124.103C531.973 123.711 531.441 123.491 530.887 123.491Z" fill="#F2F2F2"/>
<path d="M530.885 146.749H385.116C384.841 146.749 384.57 146.696 384.316 146.591C384.062 146.486 383.832 146.333 383.637 146.139C383.443 145.945 383.289 145.715 383.184 145.461C383.079 145.208 383.024 144.936 383.024 144.662C383.024 144.387 383.079 144.115 383.184 143.862C383.289 143.608 383.443 143.378 383.637 143.184C383.832 142.99 384.062 142.837 384.316 142.732C384.57 142.628 384.841 142.574 385.116 142.575H530.885C531.437 142.576 531.967 142.796 532.357 143.187C532.748 143.579 532.967 144.109 532.967 144.662C532.967 145.214 532.748 145.745 532.357 146.136C531.967 146.527 531.437 146.747 530.885 146.749Z" fill="#F2F2F2"/>
<path d="M530.885 165.829H385.116C384.562 165.829 384.032 165.609 383.64 165.218C383.249 164.826 383.029 164.295 383.029 163.742C383.029 163.188 383.249 162.657 383.64 162.266C384.032 161.875 384.562 161.655 385.116 161.655H530.885C531.438 161.655 531.969 161.875 532.36 162.266C532.752 162.657 532.972 163.188 532.972 163.742C532.972 164.295 532.752 164.826 532.36 165.218C531.969 165.609 531.438 165.829 530.885 165.829Z" fill="#F2F2F2"/>
<path d="M530.885 185.024H385.116C384.562 185.024 384.032 184.804 383.64 184.413C383.249 184.021 383.029 183.491 383.029 182.937C383.029 182.384 383.249 181.853 383.64 181.461C384.032 181.07 384.562 180.85 385.116 180.85H530.885C531.438 180.85 531.969 181.07 532.36 181.461C532.752 181.853 532.972 182.384 532.972 182.937C532.972 183.491 532.752 184.021 532.36 184.413C531.969 184.804 531.438 185.024 530.885 185.024Z" fill="#F2F2F2"/>
<path d="M530.885 204.219H385.116C384.562 204.219 384.032 204 383.64 203.608C383.249 203.217 383.029 202.686 383.029 202.132C383.029 201.579 383.249 201.048 383.64 200.657C384.032 200.265 384.562 200.045 385.116 200.045H530.885C531.438 200.045 531.969 200.265 532.36 200.657C532.752 201.048 532.972 201.579 532.972 202.132C532.972 202.686 532.752 203.217 532.36 203.608C531.969 204 531.438 204.219 530.885 204.219Z" fill="#F2F2F2"/>
<path d="M530.885 223.415H385.116C384.562 223.415 384.032 223.195 383.64 222.804C383.249 222.412 383.029 221.881 383.029 221.328C383.029 220.774 383.249 220.243 383.64 219.852C384.032 219.461 384.562 219.241 385.116 219.241H530.885C531.438 219.241 531.969 219.461 532.36 219.852C532.752 220.243 532.972 220.774 532.972 221.328C532.972 221.881 532.752 222.412 532.36 222.804C531.969 223.195 531.438 223.415 530.885 223.415Z" fill="#F2F2F2"/>
<path d="M530.885 242.61H385.116C384.562 242.61 384.032 242.39 383.64 241.999C383.249 241.607 383.029 241.077 383.029 240.523C383.029 239.97 383.249 239.439 383.64 239.047C384.032 238.656 384.562 238.436 385.116 238.436H530.885C531.438 238.436 531.969 238.656 532.36 239.047C532.752 239.439 532.972 239.97 532.972 240.523C532.972 241.077 532.752 241.607 532.36 241.999C531.969 242.39 531.438 242.61 530.885 242.61Z" fill="#F2F2F2"/>
<path d="M609.106 18.5434C609.346 20.5672 610.366 22.4177 611.949 23.7011C613.532 24.9845 615.553 25.5996 617.583 25.4153C617.995 25.3714 618.403 25.2934 618.802 25.1823L634.542 47.4808L648.666 43.475L623.802 15.2599C623.213 13.6407 622.104 12.2621 620.649 11.3393C619.194 10.4164 617.474 10.0012 615.758 10.1585C614.783 10.2573 613.836 10.5473 612.973 11.012C612.11 11.4766 611.346 12.1068 610.726 12.8665C610.106 13.6262 609.642 14.5005 609.36 15.4396C609.078 16.3787 608.984 17.3641 609.083 18.3397C609.09 18.4076 609.098 18.4755 609.106 18.5434Z" fill="#A0616A"/>
<path d="M703.78 439.685L694.918 439.684L690.703 405.504L703.782 405.505L703.78 439.685Z" fill="#A0616A"/>
<path d="M704.092 448.929L676.841 448.928V448.584C676.842 445.771 677.959 443.073 679.948 441.084C681.937 439.095 684.635 437.977 687.448 437.977L692.426 434.201L701.713 437.978L704.092 437.978L704.092 448.929Z" fill="#2F2E41"/>
<path d="M674.39 418.681L665.82 420.934L653.051 388.949L665.7 385.624L674.39 418.681Z" fill="#A0616A"/>
<path d="M677.043 427.543L650.688 434.471L650.6 434.138C649.885 431.417 650.28 428.524 651.698 426.095C653.116 423.665 655.441 421.898 658.161 421.183L662.015 416.265L671.958 417.556L674.258 416.951L677.043 427.543Z" fill="#2F2E41"/>
<path d="M660.791 213.455C660.791 213.455 643.068 229.748 645.186 232.279C647.304 234.809 652.467 232.731 647.304 238.072C642.142 243.413 639.847 232.221 642.142 245.274C644.436 258.327 632.723 325.636 632.723 325.636C632.723 325.636 630.019 338.389 631.778 340.232C633.538 342.075 636.177 339.417 634.284 344.761C632.39 350.105 627.151 347.811 631.778 352.4C636.406 356.989 654.849 406.056 654.849 406.056L671.464 396.982C671.464 396.982 667.954 346.664 662.792 341.501C657.629 336.339 680.922 283.818 680.922 283.818C680.922 283.818 682.891 391.66 685.174 396.982C687.457 402.304 691.473 400.47 687.457 404.542C683.442 408.614 680.9 404.74 684.465 410.692C688.031 416.645 686.811 421.089 686.811 421.089H707.147L725.221 261.534L719.905 217.19L660.791 213.455Z" fill="#2F2E41"/>
<path d="M646.604 228.504C663.496 208.731 657.791 183.582 651.086 158.195L652.362 120.692C652.425 118.852 652.929 117.054 653.832 115.451C654.736 113.847 656.012 112.484 657.553 111.477L674.798 100.211L678.729 85.3267L699.503 87.8192L710.271 103.207L721.627 111.877C724.479 114.054 726.648 117 727.88 120.37C729.112 123.739 729.355 127.39 728.581 130.893L717.713 180.04C717.713 180.04 722.259 205.518 719.485 208.332C716.712 211.146 709.565 208.334 715.232 211.493C722.033 215.283 728.217 214.584 724.776 218.025C721.334 221.467 725.69 226.252 725.69 226.252L646.604 228.504Z" fill="#E6E6E6"/>
<path d="M715.402 130.019C715.402 130.019 732.624 127.669 728.243 121.391C723.862 115.114 717.602 99.6877 699.163 94.3132L645.565 32.118C645.565 32.118 626.301 42.5971 631.167 44.8906C636.032 47.184 636.953 49.4365 636.953 49.4365C636.953 49.4365 634.646 53.8072 639.272 57.432C643.899 61.0569 658.118 86.4926 658.118 86.4926L688.71 127.742L715.402 130.019Z" fill="#E6E6E6"/>
<path d="M681.177 89.1012C692.837 89.1012 702.29 79.6486 702.29 67.9883C702.29 56.3279 692.837 46.8753 681.177 46.8753C669.517 46.8753 660.064 56.3279 660.064 67.9883C660.064 79.6486 669.517 89.1012 681.177 89.1012Z" fill="#A0616A"/>
<path d="M689.374 86.8374L690.757 87.2789C686.431 87.6418 678.721 90.0549 679.476 88.7209C680.232 87.3868 677.377 82.3546 678.77 81.7169C680.218 81.2089 681.509 80.3334 682.517 79.1763C683.4 77.9404 683.38 75.9 682.056 75.1446C680.771 74.3991 679.182 75.2035 677.907 75.9588C676.622 76.7044 674.248 65.7375 674.856 62.3139C671.276 60.3521 666.94 64.1091 662.918 63.3734C660.456 62.9222 658.68 60.9014 657.562 58.606C659.389 56.8731 660.749 54.7069 661.515 52.3084C659.808 53.1685 657.983 53.7734 656.1 54.1035C655.763 52.3223 655.81 50.4895 656.238 48.7279C656.566 47.3217 657.237 46.0182 658.19 44.9333C659.143 43.8484 660.349 43.0156 661.702 42.5088C664.448 41.6259 667.832 42.7148 669.157 45.275C669.24 43.9397 668.897 42.6125 668.178 41.4843C667.459 40.3562 666.4 39.4853 665.154 38.997C666.063 38.5254 667.069 38.2702 668.093 38.2512C669.117 38.2323 670.131 38.4502 671.057 38.888C671.983 39.3257 672.795 39.9714 673.43 40.7748C674.065 41.5781 674.506 42.5173 674.719 43.5192C679.148 41.2991 684.231 40.7556 689.03 41.9889C693.778 43.2347 700.076 48.5023 700.076 48.5023C710.788 50.8664 710.278 91.595 689.374 86.8374Z" fill="#2F2E41"/>
<path d="M632.286 263.668C633.716 262.216 634.522 260.263 634.534 258.225C634.546 256.187 633.762 254.225 632.349 252.756C632.057 252.462 631.741 252.193 631.405 251.951L638.965 225.725L627.007 217.206L620.535 254.253C619.64 255.725 619.257 257.452 619.447 259.165C619.636 260.878 620.388 262.479 621.583 263.72C622.271 264.42 623.089 264.977 623.991 265.36C624.894 265.743 625.863 265.945 626.843 265.954C627.824 265.963 628.796 265.778 629.705 265.411C630.615 265.044 631.443 264.501 632.142 263.814C632.191 263.766 632.239 263.718 632.286 263.668Z" fill="#A0616A"/>
<path d="M677.33 115.823C677.33 115.823 655.636 109.377 653.142 116.614C650.648 123.851 649.822 128.447 639.529 157.334L620.823 237.278C620.823 237.278 640.636 246.677 639.625 241.394C638.613 236.111 639.891 234.04 639.891 234.04C639.891 234.04 644.783 233.331 644.988 227.457C645.193 221.583 657.378 195.113 657.378 195.113L672.702 146.097L677.33 115.823Z" fill="#E6E6E6"/>
<path d="M556.171 449.145C556.171 449.288 556.199 449.43 556.253 449.562C556.308 449.694 556.388 449.814 556.489 449.915C556.59 450.016 556.71 450.097 556.842 450.151C556.974 450.206 557.116 450.233 557.259 450.233H788.782C789.07 450.233 789.347 450.118 789.551 449.914C789.755 449.71 789.87 449.434 789.87 449.145C789.87 448.857 789.755 448.58 789.551 448.376C789.347 448.172 789.07 448.057 788.782 448.057H557.259C557.116 448.057 556.974 448.085 556.842 448.139C556.71 448.194 556.59 448.274 556.489 448.375C556.388 448.476 556.308 448.596 556.253 448.728C556.199 448.861 556.171 449.002 556.171 449.145Z" fill="#CCCCCC"/>
</g>
<g clip-path="url(#clip1_7_192)">
<path d="M145.826 443.321C226.364 443.321 291.653 440.281 291.653 436.532C291.653 432.783 226.364 429.744 145.826 429.744C65.2887 429.744 0 432.783 0 436.532C0 440.281 65.2887 443.321 145.826 443.321Z" fill="#E6E6E6"/>
<path d="M300.045 63.9844C298.53 63.986 297.078 64.5881 296.007 65.6587C294.936 66.7292 294.334 68.1806 294.332 69.6946V281.386C294.334 282.9 294.936 284.351 296.007 285.422C297.078 286.492 298.53 287.095 300.045 287.096H599.397C600.912 287.095 602.364 286.492 603.435 285.422C604.506 284.351 605.108 282.9 605.11 281.386V69.6946C605.108 68.1806 604.506 66.7292 603.435 65.6587C602.364 64.5881 600.912 63.986 599.397 63.9844H300.045Z" fill="#E6E6E6"/>
<path d="M300.759 280.672H598.683V70.4086H300.759V280.672Z" fill="white"/>
<path d="M215.954 333.075C214.125 333.076 212.352 333.704 210.93 334.854C209.509 336.004 208.525 337.607 208.144 339.395H219.282V367.337H208.144C208.555 369.266 209.666 370.975 211.263 372.134C212.859 373.293 214.829 373.82 216.791 373.613C218.754 373.407 220.57 372.481 221.891 371.015C223.211 369.549 223.941 367.646 223.941 365.674V341.059C223.941 340.01 223.734 338.972 223.333 338.004C222.932 337.035 222.343 336.155 221.602 335.414C220.86 334.672 219.98 334.084 219.011 333.683C218.042 333.282 217.003 333.075 215.954 333.075Z" fill="#3F3D56"/>
<path d="M126.154 284.178C122.347 284.182 118.697 285.696 116.005 288.387C113.313 291.077 111.799 294.726 111.794 298.531V408.867C111.799 412.672 113.313 416.32 116.005 419.011C118.697 421.702 122.347 423.216 126.154 423.22H195.937C199.745 423.216 203.394 421.702 206.086 419.011C208.778 416.32 210.293 412.672 210.297 408.867V298.531C210.293 294.726 208.778 291.077 206.086 288.387C203.394 285.696 199.745 284.182 195.937 284.178H126.154Z" fill="#3F3D56"/>
<path d="M118.783 436.193C122.826 436.193 126.104 432.916 126.104 428.875C126.104 424.833 122.826 421.557 118.783 421.557C114.739 421.557 111.461 424.833 111.461 428.875C111.461 432.916 114.739 436.193 118.783 436.193Z" fill="#3F3D56"/>
<path d="M200.646 436.193C204.69 436.193 207.968 432.916 207.968 428.875C207.968 424.833 204.69 421.557 200.646 421.557C196.603 421.557 193.325 424.833 193.325 428.875C193.325 432.916 196.603 436.193 200.646 436.193Z" fill="#3F3D56"/>
<path d="M128.1 283.18H124.107V423.553H128.1V283.18Z" fill="#4D4D4D"/>
<path d="M139.415 283.18H135.422V423.553H139.415V283.18Z" fill="#4D4D4D"/>
<path d="M150.729 283.18H146.736V423.553H150.729V283.18Z" fill="#4D4D4D"/>
<path d="M162.044 283.18H158.051V423.553H162.044V283.18Z" fill="#4D4D4D"/>
<path d="M173.358 283.18H169.365V423.553H173.358V283.18Z" fill="#4D4D4D"/>
<path d="M184.673 283.18H180.68V423.553H184.673V283.18Z" fill="#4D4D4D"/>
<path d="M195.988 283.18H191.994V423.553H195.988V283.18Z" fill="#4D4D4D"/>
<path d="M194.915 272.535C197.524 268.099 198.9 263.046 198.899 257.899H128.184C128.183 263.046 129.559 268.099 132.168 272.535H117.784C117.784 280.251 124.303 286.506 132.343 286.506H150.161C153.154 287.392 156.26 287.84 159.382 287.837H167.701C170.823 287.84 173.929 287.392 176.922 286.506H194.74C202.78 286.506 209.299 280.251 209.299 272.535H194.915Z" fill="#2F2E41"/>
<path d="M142.679 373.324C142.81 374.743 142.508 376.168 141.813 377.411C141.118 378.655 140.062 379.658 138.785 380.29L138.749 380.31C132.093 384.105 126.646 387.084 120.182 386.535C119.531 386.478 118.901 386.27 118.343 385.93C117.785 385.589 117.313 385.124 116.964 384.572C116.615 384.019 116.399 383.393 116.331 382.743C116.264 382.093 116.348 381.436 116.576 380.823L125.771 363.345C131.112 357.125 134.876 357.119 141.412 362.347L142.679 373.324Z" fill="#2F2E41"/>
<path d="M180.744 373.324C180.612 374.743 180.914 376.168 181.609 377.411C182.304 378.655 183.36 379.658 184.637 380.29L184.673 380.31C191.329 384.105 196.776 387.084 203.24 386.535C203.892 386.478 204.521 386.27 205.079 385.93C205.637 385.589 206.109 385.124 206.458 384.572C206.807 384.019 207.024 383.393 207.091 382.743C207.158 382.093 207.075 381.436 206.846 380.823L197.651 363.345C192.31 357.125 188.546 357.119 182.011 362.347L180.744 373.324Z" fill="#2F2E41"/>
<path d="M154.021 167.422H128.436C127.277 167.424 126.148 167.053 125.217 166.363C124.286 165.673 123.602 164.702 123.266 163.593C122.478 160.969 121.461 158.422 121.445 156.112C121.382 147.149 121.828 141.443 125.771 137.817C138.91 127.859 148.429 129.691 157.385 140.146C160.529 145.987 159.722 154.704 158.021 164.072C157.853 165.01 157.36 165.86 156.629 166.472C155.898 167.084 154.975 167.421 154.021 167.422Z" fill="#2F2E41"/>
<path d="M140.746 178.732C150.303 178.732 158.051 170.988 158.051 161.435C158.051 151.882 150.303 144.138 140.746 144.138C131.189 144.138 123.441 151.882 123.441 161.435C123.441 170.988 131.189 178.732 140.746 178.732Z" fill="#A0616A"/>
<path d="M154.057 196.029L130.097 196.694L128.1 170.749L151.395 170.084L154.057 196.029Z" fill="#A0616A"/>
<path d="M194.656 257.899L178.123 265.549C175.353 272.118 171.534 271.929 166.703 265.217C162.092 273.289 152.16 268.452 147.308 264.927C144.18 263.333 140.721 262.499 137.21 262.492C133.699 262.484 130.236 263.304 127.102 264.885L109.465 186.715C114.901 182.043 122.146 179.109 129.099 177.069L142.743 194.033L152.061 177.401C158.537 172.196 167.634 172.187 177.352 173.41L183.026 203.733C179.284 227.653 184.911 239.65 194.656 257.899Z" fill="#004AAD"/>
<path d="M140.081 361.017L126.104 362.347L105.398 270.876C104.927 268.758 104.938 266.561 105.431 264.448C105.923 262.334 106.883 260.358 108.242 258.666C109.6 256.973 111.321 255.607 113.279 254.668C115.236 253.73 117.379 253.242 119.55 253.242C121.614 253.242 123.654 253.683 125.534 254.535C127.414 255.386 129.09 256.63 130.451 258.181C131.812 259.732 132.825 261.556 133.424 263.531C134.022 265.505 134.192 267.585 133.922 269.63L131.428 288.502L140.081 361.017Z" fill="#2F2E41"/>
<path d="M182.011 362.347L195.988 361.682L216.693 270.876C217.164 268.758 217.153 266.561 216.661 264.448C216.169 262.334 215.208 260.358 213.849 258.666C212.491 256.973 210.77 255.607 208.813 254.668C206.855 253.73 204.712 253.242 202.541 253.242C200.477 253.242 198.437 253.683 196.557 254.535C194.677 255.386 193.001 256.63 191.64 258.181C190.28 259.732 189.266 261.556 188.668 263.531C188.069 265.505 187.899 267.585 188.17 269.63L190.663 288.502L182.011 362.347Z" fill="#2F2E41"/>
<path d="M227.44 231.075L215.622 261.558C209.16 256.62 203.95 255.946 196.783 258.565C194.801 258.29 193.325 253.935 193.325 251.935C193.325 250.904 193.723 249.912 194.436 249.167C195.149 248.421 196.121 247.979 197.152 247.932L207.968 247.441C209.947 242.262 211.149 236.819 211.537 231.288C216.726 229.817 222.213 229.743 227.44 231.075Z" fill="#A0616A"/>
<path d="M228.6 231.954L231.481 221.207C232.739 217.277 232.616 213.035 231.131 209.184C229.646 205.334 226.889 202.106 223.317 200.037L177.352 173.41L176.686 202.682L210.63 217.318C211.567 222.298 211.872 227.377 211.537 232.433C216.831 230.86 223.292 230.527 228.6 231.954Z" fill="#004AAD"/>
<path d="M157.718 151.788L139.748 155.115C138.087 155.115 136.443 154.788 134.908 154.152C133.374 153.517 131.98 152.586 130.806 151.412C129.632 150.239 128.7 148.845 128.065 147.312C127.429 145.778 127.102 144.134 127.102 142.474H158.383L157.718 151.788Z" fill="#2F2E41"/>
<path d="M124.773 158.441C125.692 158.441 126.437 156.952 126.437 155.115C126.437 153.277 125.692 151.788 124.773 151.788C123.854 151.788 123.109 153.277 123.109 155.115C123.109 156.952 123.854 158.441 124.773 158.441Z" fill="#A0616A"/>
<path d="M179.681 208.058H179.488V202.766C179.488 202.363 179.409 201.965 179.255 201.594C179.101 201.222 178.875 200.884 178.59 200.6C178.306 200.315 177.968 200.09 177.596 199.936C177.224 199.782 176.826 199.703 176.424 199.703H165.206C164.803 199.703 164.405 199.782 164.033 199.936C163.661 200.09 163.323 200.315 163.039 200.6C162.754 200.884 162.528 201.222 162.374 201.594C162.22 201.965 162.141 202.363 162.141 202.766V231.801C162.141 232.203 162.22 232.602 162.374 232.973C162.528 233.345 162.754 233.683 163.039 233.967C163.323 234.252 163.661 234.477 164.033 234.631C164.405 234.785 164.803 234.864 165.206 234.864H176.424C176.826 234.864 177.224 234.785 177.596 234.631C177.968 234.477 178.306 234.252 178.59 233.967C178.875 233.683 179.101 233.345 179.255 232.973C179.409 232.602 179.488 232.203 179.488 231.801V211.826H179.681V208.058Z" fill="#E6E6E6"/>
<path d="M170.363 210.998C171.834 210.998 173.026 209.806 173.026 208.336C173.026 206.867 171.834 205.675 170.363 205.675C168.893 205.675 167.701 206.867 167.701 208.336C167.701 209.806 168.893 210.998 170.363 210.998Z" fill="#6C63FF"/>
<path d="M168.034 232.619C154.343 243.362 140.617 252.303 130.43 253.575L128.766 235.28C138.55 233.87 151.632 227.427 165.372 219.979L172.092 216.486C173.176 215.923 174.382 215.637 175.603 215.654C176.825 215.67 178.023 215.99 179.09 216.583C180.158 217.176 181.062 218.024 181.721 219.052C182.38 220.08 182.775 221.255 182.868 222.472C183.001 224.199 182.523 225.917 181.517 227.327C180.511 228.737 179.042 229.748 177.366 230.186L168.034 232.619Z" fill="#A0616A"/>
<path d="M142.077 253.908L114.789 254.573C105.607 236.568 102.275 217.354 104.14 197.068C104.14 194.9 104.666 192.764 105.673 190.844C106.679 188.924 108.136 187.276 109.92 186.042L112.793 184.054C125.076 202.281 132.695 219.208 130.097 233.284L138.084 232.619C132.912 239.597 135.306 246.712 142.077 253.908Z" fill="#004AAD"/>
<path d="M24.0053 332.475C24.0053 332.475 25.4152 302.165 54.3172 305.689Z" fill="#E6E6E6"/>
<path d="M23.6659 435.182C23.6298 434.865 20.2184 403.281 34.0312 386.566C39.1289 380.397 45.9598 376.942 54.3335 376.299L54.4257 377.489C46.3885 378.107 39.8371 381.416 34.954 387.324C21.4644 403.645 24.8174 434.735 24.8524 435.047L23.6659 435.182Z" fill="#E6E6E6"/>
<path d="M23.7004 301.485H22.4981V434.279H23.7004V301.485Z" fill="#E6E6E6"/>
<path d="M23.2676 303.004C28.7181 303.004 33.1366 298.588 33.1366 293.139C33.1366 287.691 28.7181 283.275 23.2676 283.275C17.8171 283.275 13.3986 287.691 13.3986 293.139C13.3986 298.588 17.8171 303.004 23.2676 303.004Z" fill="#004AAD"/>
<path d="M54.3797 386.696C59.7957 386.696 64.1862 382.308 64.1862 376.894C64.1862 371.48 59.7957 367.091 54.3797 367.091C48.9636 367.091 44.5731 371.48 44.5731 376.894C44.5731 382.308 48.9636 386.696 54.3797 386.696Z" fill="#E6E6E6"/>
<path d="M342.382 112.318C339.14 112.318 335.971 113.279 333.276 115.079C330.581 116.879 328.48 119.438 327.239 122.431C325.999 125.425 325.674 128.719 326.307 131.897C326.939 135.075 328.5 137.994 330.792 140.285C333.084 142.576 336.005 144.137 339.184 144.769C342.363 145.401 345.659 145.077 348.654 143.837C351.649 142.597 354.208 140.497 356.009 137.803C357.81 135.108 358.772 131.941 358.772 128.701C358.772 126.549 358.348 124.419 357.524 122.431C356.7 120.444 355.493 118.638 353.971 117.116C352.449 115.595 350.642 114.388 348.654 113.565C346.665 112.742 344.534 112.318 342.382 112.318ZM349.932 130.298C349.763 130.298 349.2 130.293 349.036 130.283L345.806 130.198C345.789 130.198 345.773 130.202 345.758 130.209C345.743 130.217 345.731 130.229 345.722 130.243L340.874 137.486C340.802 137.599 340.703 137.692 340.586 137.756C340.468 137.821 340.336 137.854 340.202 137.854H339.023C338.744 137.854 338.65 137.575 338.749 137.317L341.243 130.208C341.248 130.193 341.25 130.177 341.249 130.162C341.247 130.146 341.241 130.131 341.233 130.118C341.224 130.104 341.212 130.094 341.198 130.086C341.184 130.078 341.169 130.074 341.153 130.074L335.096 129.939C335.033 129.938 334.971 129.951 334.914 129.978C334.857 130.005 334.807 130.044 334.768 130.094L332.892 132.367C332.817 132.461 332.721 132.538 332.613 132.59C332.504 132.643 332.385 132.67 332.265 132.67H331.434C331.402 132.671 331.37 132.663 331.342 132.649C331.313 132.635 331.289 132.614 331.27 132.588C331.252 132.562 331.24 132.532 331.235 132.5C331.231 132.469 331.234 132.437 331.244 132.407L332.235 128.989C332.309 128.799 332.309 128.588 332.235 128.397L331.244 124.98C331.234 124.95 331.231 124.918 331.235 124.886C331.24 124.855 331.252 124.825 331.27 124.799C331.289 124.773 331.313 124.752 331.342 124.738C331.37 124.723 331.402 124.716 331.434 124.716H332.27C332.39 124.715 332.51 124.742 332.618 124.795C332.727 124.848 332.822 124.924 332.897 125.02L334.738 127.258C334.777 127.308 334.827 127.348 334.884 127.375C334.941 127.401 335.003 127.414 335.066 127.412L341.158 127.323C341.174 127.323 341.19 127.319 341.204 127.311C341.218 127.304 341.23 127.293 341.239 127.279C341.247 127.266 341.253 127.251 341.254 127.235C341.256 127.219 341.254 127.203 341.248 127.188L338.754 120.085C338.655 119.826 338.749 119.548 339.028 119.548H340.207C340.341 119.548 340.473 119.582 340.59 119.646C340.708 119.71 340.807 119.803 340.879 119.916L345.722 127.164C345.73 127.178 345.743 127.19 345.758 127.198C345.773 127.206 345.789 127.209 345.806 127.208L349.036 127.124C349.195 127.114 349.763 127.109 349.932 127.109C352.142 127.109 353.53 127.825 353.53 128.706C353.53 129.586 352.137 130.298 349.932 130.298Z" fill="#3F3D56"/>
<path d="M383.974 127.931H379.899V129.289H383.974V127.931Z" fill="#3F3D56"/>
<path d="M527.448 129.289H519.477V127.931H527.448V129.289ZM511.507 129.289H503.536V127.931H511.507L511.507 129.289ZM495.565 129.289H487.594V127.931H495.565V129.289ZM479.623 129.289H471.652V127.931H479.623V129.289ZM463.682 129.289H455.711V127.931H463.682V129.289ZM447.74 129.289H439.769V127.931H447.74V129.289ZM431.799 129.289H423.828V127.931H431.799V129.289ZM415.857 129.289H407.886V127.931H415.857V129.289ZM399.916 129.289H391.945V127.931H399.916V129.289Z" fill="#3F3D56"/>
<path d="M539.494 127.931H535.419V129.289H539.494V127.931Z" fill="#3F3D56"/>
<path d="M383.974 174.771H379.899V176.128H383.974V174.771Z" fill="#3F3D56"/>
<path d="M527.448 176.128H519.477V174.771H527.448V176.128ZM511.507 176.128H503.536V174.771H511.507L511.507 176.128ZM495.565 176.128H487.594V174.771H495.565V176.128ZM479.623 176.128H471.652V174.771H479.623V176.128ZM463.682 176.128H455.711V174.771H463.682V176.128ZM447.74 176.128H439.769V174.771H447.74V176.128ZM431.799 176.128H423.828V174.771H431.799V176.128ZM415.857 176.128H407.886V174.771H415.857V176.128ZM399.916 176.128H391.945V174.771H399.916V176.128Z" fill="#3F3D56"/>
<path d="M539.494 174.771H535.419V176.128H539.494V174.771Z" fill="#3F3D56"/>
<path d="M383.974 221.61H379.899V222.968H383.974V221.61Z" fill="#3F3D56"/>
<path d="M527.448 222.968H519.477V221.61H527.448V222.968ZM511.507 222.968H503.536V221.61H511.507L511.507 222.968ZM495.565 222.968H487.594V221.61H495.565V222.968ZM479.623 222.968H471.652V221.61H479.623V222.968ZM463.682 222.968H455.711V221.61H463.682V222.968ZM447.74 222.968H439.769V221.61H447.74V222.968ZM431.799 222.968H423.828V221.61H431.799V222.968ZM415.857 222.968H407.886V221.61H415.857V222.968ZM399.916 222.968H391.945V221.61H399.916V222.968Z" fill="#3F3D56"/>
<path d="M539.494 221.61H535.419V222.968H539.494V221.61Z" fill="#3F3D56"/>
<path d="M342.088 159.836C338.955 159.836 335.893 160.765 333.288 162.505C330.683 164.244 328.653 166.717 327.454 169.61C326.255 172.503 325.942 175.686 326.553 178.757C327.164 181.829 328.672 184.65 330.888 186.864C333.103 189.078 335.925 190.586 338.998 191.197C342.07 191.808 345.255 191.494 348.149 190.296C351.043 189.098 353.517 187.068 355.257 184.465C356.998 181.861 357.927 178.8 357.927 175.669C357.927 171.47 356.258 167.443 353.288 164.474C350.317 161.504 346.288 159.836 342.088 159.836ZM334.681 175.13L335.556 170.477C335.782 169.212 336.369 168.217 337.471 168.217H339.125L339.221 167.837C339.305 167.506 339.498 167.212 339.768 167.002C340.038 166.793 340.37 166.679 340.712 166.679H343.454C343.795 166.679 344.127 166.792 344.396 167.001C344.666 167.21 344.859 167.502 344.944 167.833L345.041 168.217H346.705C347.782 168.217 348.354 169.193 348.624 170.472V170.477L349.504 175.135C349.511 175.17 349.508 175.206 349.496 175.239C349.483 175.272 349.462 175.302 349.434 175.324C349.406 175.346 349.373 175.359 349.338 175.363C349.302 175.367 349.267 175.362 349.235 175.347L348.013 174.784C347.984 174.772 347.959 174.753 347.94 174.729C347.92 174.704 347.907 174.675 347.902 174.645L347.123 170.53C346.979 170.001 346.777 169.76 346.349 169.76H337.831C337.408 169.76 337.177 170.015 337.057 170.53L336.278 174.645C336.272 174.675 336.259 174.704 336.239 174.728C336.22 174.752 336.195 174.771 336.167 174.784L334.95 175.342C334.918 175.356 334.883 175.362 334.848 175.358C334.813 175.353 334.779 175.339 334.752 175.318C334.724 175.296 334.702 175.267 334.69 175.234C334.678 175.201 334.675 175.165 334.681 175.13ZM351.644 178.125L349.013 184.658C348.025 184.56 347.082 184.194 346.286 183.601C345.075 184.114 343.785 184.417 342.472 184.495C342.338 184.5 342.208 184.505 342.088 184.505C341.967 184.505 341.838 184.505 341.703 184.495C340.39 184.415 339.101 184.112 337.889 183.601C337.093 184.194 336.15 184.56 335.162 184.658L332.531 178.125C332.491 178.023 332.469 177.913 332.469 177.803C332.469 177.637 332.516 177.475 332.606 177.335C332.695 177.195 332.823 177.084 332.974 177.015L341.924 172.904C341.975 172.881 342.03 172.868 342.085 172.868C342.141 172.868 342.196 172.881 342.246 172.904L351.202 177.015C351.352 177.084 351.48 177.195 351.569 177.335C351.659 177.475 351.706 177.637 351.707 177.803C351.706 177.913 351.685 178.023 351.644 178.125Z" fill="#3F3D56"/>
<path d="M347.796 218.483H343.032C342.981 218.483 342.931 218.504 342.895 218.54C342.858 218.577 342.838 218.626 342.838 218.678V225.481C342.838 225.532 342.858 225.582 342.895 225.618C342.931 225.654 342.981 225.675 343.032 225.675H347.796C348.002 225.674 348.2 225.592 348.346 225.447C348.491 225.301 348.573 225.104 348.574 224.898V219.261C348.573 219.055 348.491 218.857 348.346 218.712C348.2 218.566 348.002 218.484 347.796 218.483Z" fill="#3F3D56"/>
<path d="M346.727 227.133C346.425 227.157 346.145 227.296 345.944 227.522C345.743 227.748 345.638 228.043 345.65 228.345C345.662 228.647 345.79 228.933 346.008 229.142C346.226 229.352 346.517 229.469 346.819 229.469C347.122 229.469 347.412 229.352 347.63 229.142C347.848 228.933 347.977 228.647 347.989 228.345C348.001 228.043 347.895 227.748 347.694 227.522C347.494 227.296 347.213 227.157 346.912 227.133C346.85 227.128 346.788 227.128 346.727 227.133Z" fill="#3F3D56"/>
<path d="M337.398 227.133C337.096 227.157 336.816 227.296 336.615 227.522C336.414 227.748 336.309 228.043 336.321 228.345C336.333 228.647 336.461 228.933 336.679 229.142C336.897 229.352 337.188 229.469 337.49 229.469C337.793 229.469 338.083 229.352 338.301 229.142C338.519 228.933 338.648 228.647 338.66 228.345C338.671 228.043 338.566 227.748 338.365 227.522C338.164 227.296 337.884 227.157 337.583 227.133C337.521 227.128 337.459 227.128 337.398 227.133Z" fill="#3F3D56"/>
<path d="M341.282 218.483H336.527C336.319 218.484 336.119 218.567 335.971 218.715C335.824 218.862 335.741 219.062 335.74 219.27V224.888C335.741 225.096 335.824 225.296 335.971 225.444C336.119 225.591 336.319 225.674 336.527 225.675H341.282C341.333 225.675 341.383 225.654 341.419 225.618C341.456 225.582 341.476 225.532 341.476 225.481V218.678C341.476 218.626 341.456 218.577 341.419 218.54C341.383 218.504 341.334 218.483 341.282 218.483Z" fill="#3F3D56"/>
<path d="M342.157 206.756C338.991 206.756 335.895 207.695 333.262 209.453C330.629 211.212 328.577 213.711 327.365 216.635C326.154 219.559 325.837 222.777 326.454 225.882C327.072 228.986 328.597 231.837 330.836 234.076C333.075 236.314 335.928 237.838 339.034 238.455C342.139 239.073 345.358 238.756 348.284 237.545C351.209 236.333 353.71 234.282 355.469 231.65C357.228 229.019 358.167 225.925 358.167 222.759C358.167 218.515 356.481 214.445 353.478 211.443C350.475 208.442 346.403 206.756 342.157 206.756ZM349.935 229.271C349.934 229.786 349.728 230.28 349.364 230.644C349 231.008 348.506 231.213 347.991 231.215H336.323C335.808 231.213 335.314 231.008 334.95 230.644C334.586 230.28 334.38 229.786 334.379 229.271V215.859C334.38 215.447 334.544 215.052 334.836 214.761C335.127 214.47 335.522 214.305 335.934 214.304H348.38C348.792 214.305 349.187 214.47 349.478 214.761C349.77 215.052 349.934 215.447 349.935 215.859V229.271Z" fill="#3F3D56"/>
<path d="M347.845 215.665H336.469C336.376 215.658 336.282 215.671 336.194 215.702C336.106 215.734 336.025 215.783 335.957 215.847C335.888 215.91 335.834 215.988 335.796 216.073C335.759 216.159 335.74 216.252 335.74 216.345C335.74 216.439 335.759 216.531 335.796 216.617C335.834 216.703 335.888 216.78 335.957 216.844C336.025 216.907 336.106 216.957 336.194 216.988C336.282 217.019 336.376 217.032 336.469 217.025H347.845C347.938 217.032 348.032 217.019 348.12 216.988C348.208 216.957 348.289 216.907 348.357 216.844C348.426 216.78 348.48 216.703 348.518 216.617C348.555 216.531 348.574 216.439 348.574 216.345C348.574 216.252 348.555 216.159 348.518 216.073C348.48 215.988 348.426 215.91 348.357 215.847C348.289 215.783 348.208 215.734 348.12 215.702C348.032 215.671 347.938 215.658 347.845 215.665Z" fill="#3F3D56"/>
<path d="M563.263 138.792C561.249 138.792 559.279 138.195 557.604 137.076C555.929 135.958 554.623 134.367 553.852 132.507C553.081 130.646 552.879 128.599 553.272 126.623C553.665 124.648 554.636 122.834 556.06 121.41C557.485 119.986 559.3 119.016 561.276 118.623C563.252 118.23 565.3 118.432 567.162 119.203C569.023 119.973 570.614 121.278 571.734 122.953C572.853 124.627 573.45 126.596 573.45 128.61C573.447 131.31 572.373 133.898 570.463 135.807C568.554 137.716 565.964 138.789 563.263 138.792ZM563.263 119.785C561.517 119.785 559.81 120.303 558.359 121.272C556.907 122.242 555.775 123.62 555.107 125.233C554.439 126.845 554.264 128.62 554.604 130.332C554.945 132.043 555.786 133.616 557.021 134.85C558.255 136.084 559.828 136.925 561.541 137.265C563.254 137.606 565.029 137.431 566.642 136.763C568.255 136.095 569.634 134.964 570.604 133.513C571.574 132.062 572.092 130.355 572.092 128.61C572.089 126.27 571.158 124.027 569.503 122.373C567.848 120.718 565.604 119.788 563.263 119.785Z" fill="#6C63FF"/>
<path d="M567.139 125.696L566.179 124.736L563.263 127.65L560.348 124.736L559.388 125.696L562.303 128.61L559.388 131.524L560.348 132.484L563.263 129.57L566.179 132.484L567.139 131.524L564.224 128.61L567.139 125.696Z" fill="#6C63FF"/>
<path d="M563.263 185.632C561.249 185.632 559.279 185.035 557.604 183.916C555.929 182.797 554.623 181.207 553.852 179.346C553.081 177.486 552.879 175.438 553.272 173.463C553.665 171.488 554.636 169.673 556.06 168.249C557.485 166.825 559.3 165.856 561.276 165.463C563.252 165.07 565.3 165.271 567.162 166.042C569.023 166.813 570.614 168.118 571.734 169.792C572.853 171.467 573.45 173.436 573.45 175.45C573.447 178.149 572.373 180.737 570.463 182.646C568.554 184.555 565.964 185.629 563.263 185.632ZM563.263 166.625C561.517 166.625 559.81 167.142 558.359 168.112C556.907 169.082 555.775 170.46 555.107 172.072C554.439 173.685 554.264 175.459 554.604 177.171C554.945 178.883 555.786 180.455 557.021 181.69C558.255 182.924 559.828 183.764 561.541 184.105C563.254 184.445 565.029 184.271 566.642 183.603C568.255 182.935 569.634 181.804 570.604 180.352C571.574 178.901 572.092 177.195 572.092 175.45C572.089 173.11 571.158 170.867 569.503 169.212C567.848 167.558 565.604 166.627 563.263 166.625Z" fill="#6C63FF"/>
<path d="M567.139 172.535L566.179 171.576L563.263 174.49L560.348 171.576L559.388 172.535L562.303 175.45L559.388 178.364L560.348 179.324L563.263 176.41L566.179 179.324L567.139 178.364L564.224 175.45L567.139 172.535Z" fill="#6C63FF"/>
<path d="M563.263 232.472C561.249 232.472 559.279 231.874 557.604 230.756C555.929 229.637 554.623 228.046 553.852 226.186C553.081 224.325 552.879 222.278 553.272 220.303C553.665 218.327 554.636 216.513 556.06 215.089C557.485 213.665 559.3 212.695 561.276 212.302C563.252 211.909 565.3 212.111 567.162 212.882C569.023 213.652 570.614 214.957 571.734 216.632C572.853 218.306 573.45 220.275 573.45 222.289C573.447 224.989 572.373 227.577 570.463 229.486C568.554 231.395 565.964 232.469 563.263 232.472ZM563.263 213.464C561.517 213.464 559.81 213.982 558.359 214.952C556.907 215.921 555.775 217.299 555.107 218.912C554.439 220.525 554.264 222.299 554.604 224.011C554.945 225.723 555.786 227.295 557.021 228.529C558.255 229.763 559.828 230.604 561.541 230.944C563.254 231.285 565.029 231.11 566.642 230.442C568.255 229.774 569.634 228.643 570.604 227.192C571.574 225.741 572.092 224.034 572.092 222.289C572.089 219.949 571.158 217.706 569.503 216.052C567.848 214.398 565.604 213.467 563.263 213.464Z" fill="#6C63FF"/>
<path d="M567.139 219.375L566.179 218.415L563.263 221.329L560.348 218.415L559.388 219.375L562.303 222.289L559.388 225.204L560.348 226.163L563.263 223.249L566.179 226.163L567.139 225.204L564.224 222.289L567.139 219.375Z" fill="#6C63FF"/>
<g clip-path="url(#clip2_7_192)">
<path d="M280.934 65.6791L271.153 75.519L280.279 84.7L290.059 74.8601L280.934 65.6791Z" fill="#E1E6FB"/>
<path d="M291.737 77.3329L281.956 87.1728L291.082 96.3538L300.863 86.5139L291.737 77.3329Z" fill="#E1E6FB"/>
<path d="M294.051 54.0329L284.27 63.8728L293.396 73.0538L303.177 63.2139L294.051 54.0329Z" fill="#E1E6FB"/>
<path d="M602.809 221.769L593.029 231.609L602.154 240.79L611.935 230.95L602.809 221.769Z" fill="#E1E6FB"/>
<path d="M613.613 233.415L603.832 243.255L612.958 252.436L622.738 242.596L613.613 233.415Z" fill="#E1E6FB"/>
<path d="M602.034 245.066L592.254 254.906L601.379 264.087L611.16 254.247L602.034 245.066Z" fill="#E1E6FB"/>
<path d="M450.095 21.0234H355.925V69.946H450.095V21.0234Z" fill="#BAC5F4"/>
<path d="M335.084 204.289H299.578V283.497H335.084V204.289Z" fill="#E1E6FB"/>
<path d="M316.559 211.278C316.559 211.278 285.684 160.802 284.14 147.601C282.596 134.4 281.053 129.74 281.053 129.74C281.053 129.74 290.315 128.187 293.403 135.176C296.49 142.165 305.753 133.623 308.84 152.26C308.84 152.26 309.612 161.579 316.559 158.473C323.506 155.366 316.559 211.278 316.559 211.278Z" fill="#E1E6FB"/>
<path d="M320.419 219.043C320.419 219.043 298.374 177.886 291.087 161.579C285.684 149.48 281.053 129.74 281.053 129.74C281.053 129.74 271.744 133.173 272.562 140.612C273.334 147.601 266.387 149.931 267.931 158.473C269.598 167.714 282.874 169.445 274.878 177.886C270.023 183.004 273.666 191.74 277.193 197.3C279.455 200.857 290.609 204.095 288 202.736C282.025 199.63 320.419 219.043 320.419 219.043Z" fill="#004AAD"/>
<path d="M306.434 184.531C307.208 184.172 304.079 175.67 299.444 165.542C294.809 155.413 290.423 147.492 289.649 147.851C288.875 148.21 292.004 156.712 296.639 166.841C301.274 176.969 305.66 184.89 306.434 184.531Z" fill="#BAC5F4"/>
<path d="M327.049 244.274C327.049 244.274 280.042 208.552 273.836 196.819C267.63 185.085 264.504 181.288 264.504 181.288C264.504 181.288 272.57 176.45 277.973 181.831C283.376 187.213 288.918 175.867 298.528 192.097C298.528 192.097 299.586 203.489 306.532 201.16C313.734 198.768 327.049 244.274 327.049 244.274Z" fill="#E1E6FB"/>
<path d="M333.448 250.105C333.448 250.105 298.034 219.82 285.352 207.294C275.943 197.976 264.511 181.303 264.511 181.303C264.511 181.303 257.078 187.912 260.528 194.505C263.77 200.717 258.143 205.446 262.674 212.839C267.568 220.837 280.566 217.591 276.167 228.37C273.496 234.916 280.026 241.719 285.344 245.609C288.733 248.094 300.296 247.03 297.378 246.72C290.663 246.06 333.448 250.105 333.448 250.105Z" fill="#F8F8FF"/>
<path d="M303.291 232.47C303.883 231.852 297.895 225.077 289.916 217.336C281.938 209.596 274.991 203.822 274.399 204.439C273.807 205.057 279.795 211.832 287.773 219.572C295.752 227.313 302.699 233.087 303.291 232.47Z" fill="#E1E6FB"/>
<path d="M572.052 149.224C572.052 149.224 608.747 89.1967 611.101 73.2075C613.456 57.2184 615.401 51.6117 615.401 51.6117C615.401 51.6117 605.212 49.2821 601.445 57.6688C597.678 66.0555 587.837 55.2227 583.499 77.7581C583.499 77.7581 582.187 89.0647 574.638 84.9723C567.089 80.8798 572.052 149.224 572.052 149.224Z" fill="#E1E6FB"/>
<path d="M567.421 158.473C567.421 158.473 593.873 109.387 602.742 89.8723C609.326 75.3897 615.424 51.5807 615.424 51.5807C615.424 51.5807 625.574 56.1856 624.3 65.1936C623.104 73.6657 630.684 76.8418 628.553 87.1389C626.238 98.3056 611.449 99.8121 619.901 110.435C625.026 116.888 620.565 127.349 616.381 133.957C613.703 138.181 601.183 141.614 604.139 140.084C610.893 136.613 567.421 158.473 567.421 158.473Z" fill="#BAC5F4"/>
<path d="M593.271 94.3996C587.636 106.514 583.754 116.718 584.595 117.191C585.436 117.665 590.685 108.222 596.32 96.108C601.954 83.9938 605.837 73.7899 604.996 73.3162C604.154 72.8426 598.898 82.2776 593.271 94.3996Z" fill="#BAC5F4"/>
<path d="M558.806 188.898C558.806 188.898 612.653 147.554 620.109 133.561C627.565 119.568 631.209 115.11 631.209 115.11C631.209 115.11 622.51 108.898 616.257 115.164C610.005 121.431 604.424 107.399 592.977 126.727C592.977 126.727 591.249 140.542 583.661 137.389C575.795 134.12 558.806 188.898 558.806 188.898Z" fill="#F8F8FF"/>
<path d="M551.427 195.693C551.427 195.693 592.159 160.453 606.825 145.792C617.709 134.92 631.209 115.11 631.209 115.11C631.209 115.11 639.121 123.489 634.968 131.418C631.062 138.849 637.075 144.836 631.695 153.627C625.875 163.132 611.626 158.605 615.987 171.93C618.627 180.014 611.032 188.005 604.973 192.493C601.113 195.366 588.339 193.542 591.588 193.27C599.068 192.718 551.427 195.693 551.427 195.693Z" fill="#E1E6FB"/>
<path d="M605.536 154.714C596.706 164.157 590.098 172.427 590.747 173.18C591.395 173.934 599.091 166.883 607.921 157.432C616.751 147.981 623.359 139.719 622.71 138.966C622.062 138.212 614.366 145.271 605.536 154.714Z" fill="white"/>
<path d="M400.694 204.289H341.259V283.497H400.694V204.289Z" fill="#004AAD"/>
<path d="M530.37 205.066H470.935V284.274H530.37V205.066Z" fill="#E1E6FB"/>
<path d="M494.092 21.0234H455.498V70.7226H494.092V21.0234Z" fill="#E1E6FB"/>
<path d="M583.63 62.1805H314.244V261.754H583.63V62.1805Z" fill="#BAC5F4"/>
<path d="M583.63 62.1805H321.191V261.754H583.63V62.1805Z" fill="#F8F8FF"/>
<path d="M580.542 65.2867H323.506V79.2646H580.542V65.2867Z" fill="white"/>
<path d="M580.542 78.4881H323.506V258.647H580.542V78.4881Z" fill="#E1E6FB"/>
<path d="M397.607 85.477H365.96V121.198H397.607V85.477Z" fill="#004AAD"/>
<path d="M433.113 85.477H401.466V121.198H433.113V85.477Z" fill="#BAC5F4"/>
<path d="M467.848 85.477H436.201V121.198H467.848V85.477Z" fill="#004AAD"/>
<path d="M503.354 85.477H471.707V121.198H503.354V85.477Z" fill="white"/>
<path d="M538.089 85.477H506.442V121.198H538.089V85.477Z" fill="white"/>
<path d="M573.596 85.477H541.948V121.198H573.596V85.477Z" fill="white"/>
<path d="M397.607 126.634H365.96V162.355H397.607V126.634Z" fill="white"/>
<path d="M433.113 126.634H401.466V162.355H433.113V126.634Z" fill="white"/>
<path d="M467.848 126.634H436.201V162.355H467.848V126.634Z" fill="#F8F8FF"/>
<path d="M503.354 126.634H471.707V162.355H503.354V126.634Z" fill="white"/>
<path d="M538.089 126.634H506.442V162.355H538.089V126.634Z" fill="white"/>
<path d="M573.596 126.634H541.948V162.355H573.596V126.634Z" fill="white"/>
<path d="M397.607 166.238H365.96V201.959H397.607V166.238Z" fill="white"/>
<path d="M433.113 166.238H401.466V201.959H433.113V166.238Z" fill="white"/>
<path d="M467.848 166.238H436.201V201.959H467.848V166.238Z" fill="#F8F8FF"/>
<path d="M503.354 166.238H471.707V201.959H503.354V166.238Z" fill="white"/>
<path d="M538.089 166.238H506.442V201.959H538.089V166.238Z" fill="#F8F8FF"/>
<path d="M573.596 166.238H541.948V201.959H573.596V166.238Z" fill="white"/>
<path d="M398.379 206.619H366.731V242.34H398.379V206.619Z" fill="#F8F8FF"/>
<path d="M433.885 206.619H402.238V242.34H433.885V206.619Z" fill="#F8F8FF"/>
<path d="M468.62 206.619H436.973V242.34H468.62V206.619Z" fill="white"/>
<path d="M504.126 206.619H472.479V242.34H504.126V206.619Z" fill="white"/>
<path d="M538.861 206.619H507.214V242.34H538.861V206.619Z" fill="#004AAD"/>
<path d="M574.367 206.619H542.72V242.34H574.367V206.619Z" fill="white"/>
<path d="M330.839 75.3819C332.331 75.3819 333.541 74.165 333.541 72.664C333.541 71.1629 332.331 69.946 330.839 69.946C329.347 69.946 328.137 71.1629 328.137 72.664C328.137 74.165 329.347 75.3819 330.839 75.3819Z" fill="#BAC5F4"/>
<path d="M339.33 75.3819C340.822 75.3819 342.031 74.165 342.031 72.664C342.031 71.1629 340.822 69.946 339.33 69.946C337.838 69.946 336.628 71.1629 336.628 72.664C336.628 74.165 337.838 75.3819 339.33 75.3819Z" fill="#BAC5F4"/>
<path d="M347.82 75.3819C349.312 75.3819 350.522 74.165 350.522 72.664C350.522 71.1629 349.312 69.946 347.82 69.946C346.328 69.946 345.119 71.1629 345.119 72.664C345.119 74.165 346.328 75.3819 347.82 75.3819Z" fill="#BAC5F4"/>
<path d="M356.311 125.858H334.698C332.78 125.858 331.225 127.422 331.225 129.352C331.225 131.282 332.78 132.847 334.698 132.847H356.311C358.229 132.847 359.785 131.282 359.785 129.352C359.785 127.422 358.229 125.858 356.311 125.858Z" fill="white"/>
<path d="M356.311 166.238H334.698C332.78 166.238 331.225 167.803 331.225 169.733C331.225 171.663 332.78 173.227 334.698 173.227H356.311C358.229 173.227 359.785 171.663 359.785 169.733C359.785 167.803 358.229 166.238 356.311 166.238Z" fill="white"/>
<path d="M356.311 206.619H334.698C332.78 206.619 331.225 208.183 331.225 210.113C331.225 212.043 332.78 213.608 334.698 213.608H356.311C358.229 213.608 359.785 212.043 359.785 210.113C359.785 208.183 358.229 206.619 356.311 206.619Z" fill="white"/>
<path d="M384.099 128.964H371.749C370.257 128.964 369.047 130.181 369.047 131.682C369.047 133.183 370.257 134.4 371.749 134.4H384.099C385.591 134.4 386.8 133.183 386.8 131.682C386.8 130.181 385.591 128.964 384.099 128.964Z" fill="#BAC5F4"/>
<path d="M376.38 139.059H370.977C369.911 139.059 369.047 139.928 369.047 141C369.047 142.072 369.911 142.942 370.977 142.942H376.38C377.446 142.942 378.31 142.072 378.31 141C378.31 139.928 377.446 139.059 376.38 139.059Z" fill="#BAC5F4"/>
<path d="M419.991 128.964H407.641C406.362 128.964 405.326 130.007 405.326 131.293C405.326 132.58 406.362 133.623 407.641 133.623H419.991C421.27 133.623 422.307 132.58 422.307 131.293C422.307 130.007 421.27 128.964 419.991 128.964Z" fill="#BAC5F4"/>
<path d="M524.967 212.055H512.617C511.338 212.055 510.301 213.098 510.301 214.384C510.301 215.671 511.338 216.714 512.617 216.714H524.967C526.246 216.714 527.283 215.671 527.283 214.384C527.283 213.098 526.246 212.055 524.967 212.055Z" fill="white"/>
<path d="M559.702 170.121H547.352C546.073 170.121 545.036 171.164 545.036 172.451C545.036 173.737 546.073 174.78 547.352 174.78H559.702C560.981 174.78 562.017 173.737 562.017 172.451C562.017 171.164 560.981 170.121 559.702 170.121Z" fill="#F5F5FC"/>
<path d="M558.93 129.74H546.58C545.301 129.74 544.264 130.783 544.264 132.07C544.264 133.357 545.301 134.4 546.58 134.4H558.93C560.209 134.4 561.245 133.357 561.245 132.07C561.245 130.783 560.209 129.74 558.93 129.74Z" fill="#F5F5FC"/>
<path d="M524.195 129.74H511.845C510.566 129.74 509.529 130.783 509.529 132.07C509.529 133.357 510.566 134.4 511.845 134.4H524.195C525.474 134.4 526.511 133.357 526.511 132.07C526.511 130.783 525.474 129.74 524.195 129.74Z" fill="#F5F5FC"/>
<path d="M408.413 142.942C410.118 142.942 411.501 141.551 411.501 139.835C411.501 138.12 410.118 136.729 408.413 136.729C406.708 136.729 405.326 138.12 405.326 139.835C405.326 141.551 406.708 142.942 408.413 142.942Z" fill="#BAC5F4"/>
<path d="M478.654 137.506C480.359 137.506 481.742 136.115 481.742 134.4C481.742 132.684 480.359 131.293 478.654 131.293C476.949 131.293 475.567 132.684 475.567 134.4C475.567 136.115 476.949 137.506 478.654 137.506Z" fill="#BAC5F4"/>
<path d="M489.461 137.506C491.166 137.506 492.548 136.115 492.548 134.4C492.548 132.684 491.166 131.293 489.461 131.293C487.755 131.293 486.373 132.684 486.373 134.4C486.373 136.115 487.755 137.506 489.461 137.506Z" fill="#BAC5F4"/>
<path d="M489.461 176.333C491.166 176.333 492.548 174.943 492.548 173.227C492.548 171.512 491.166 170.121 489.461 170.121C487.755 170.121 486.373 171.512 486.373 173.227C486.373 174.943 487.755 176.333 489.461 176.333Z" fill="#BAC5F4"/>
<path d="M478.654 176.333C480.359 176.333 481.742 174.943 481.742 173.227C481.742 171.512 480.359 170.121 478.654 170.121C476.949 170.121 475.567 171.512 475.567 173.227C475.567 174.943 476.949 176.333 478.654 176.333Z" fill="#BAC5F4"/>
<path d="M488.689 215.937C490.394 215.937 491.776 214.547 491.776 212.831C491.776 211.116 490.394 209.725 488.689 209.725C486.983 209.725 485.601 211.116 485.601 212.831C485.601 214.547 486.983 215.937 488.689 215.937Z" fill="#BAC5F4"/>
<path d="M477.882 215.937C479.588 215.937 480.97 214.547 480.97 212.831C480.97 211.116 479.588 209.725 477.882 209.725C476.177 209.725 474.795 211.116 474.795 212.831C474.795 214.547 476.177 215.937 477.882 215.937Z" fill="#BAC5F4"/>
<path d="M383.713 216.714C385.418 216.714 386.8 215.323 386.8 213.608C386.8 211.892 385.418 210.501 383.713 210.501C382.008 210.501 380.625 211.892 380.625 213.608C380.625 215.323 382.008 216.714 383.713 216.714Z" fill="#BAC5F4"/>
<path d="M372.907 216.714C374.612 216.714 375.994 215.323 375.994 213.608C375.994 211.892 374.612 210.501 372.907 210.501C371.201 210.501 369.819 211.892 369.819 213.608C369.819 215.323 371.201 216.714 372.907 216.714Z" fill="#BAC5F4"/>
<path d="M478.654 95.5721C480.359 95.5721 481.742 94.1815 481.742 92.466C481.742 90.7504 480.359 89.3598 478.654 89.3598C476.949 89.3598 475.567 90.7504 475.567 92.466C475.567 94.1815 476.949 95.5721 478.654 95.5721Z" fill="#BAC5F4"/>
<path d="M442.376 95.5721C444.081 95.5721 445.463 94.1815 445.463 92.466C445.463 90.7504 444.081 89.3598 442.376 89.3598C440.671 89.3598 439.288 90.7504 439.288 92.466C439.288 94.1815 440.671 95.5721 442.376 95.5721Z" fill="white"/>
<path d="M453.182 95.5721C454.887 95.5721 456.27 94.1815 456.27 92.466C456.27 90.7504 454.887 89.3598 453.182 89.3598C451.477 89.3598 450.095 90.7504 450.095 92.466C450.095 94.1815 451.477 95.5721 453.182 95.5721Z" fill="white"/>
<path d="M407.641 95.5721C409.346 95.5721 410.729 94.1815 410.729 92.466C410.729 90.7504 409.346 89.3598 407.641 89.3598C405.936 89.3598 404.554 90.7504 404.554 92.466C404.554 94.1815 405.936 95.5721 407.641 95.5721Z" fill="white"/>
<path d="M418.447 95.5721C420.153 95.5721 421.535 94.1815 421.535 92.466C421.535 90.7504 420.153 89.3598 418.447 89.3598C416.742 89.3598 415.36 90.7504 415.36 92.466C415.36 94.1815 416.742 95.5721 418.447 95.5721Z" fill="white"/>
<path d="M372.907 95.5721C374.612 95.5721 375.994 94.1815 375.994 92.466C375.994 90.7504 374.612 89.3598 372.907 89.3598C371.201 89.3598 369.819 90.7504 369.819 92.466C369.819 94.1815 371.201 95.5721 372.907 95.5721Z" fill="white"/>
<path d="M383.713 95.5721C385.418 95.5721 386.8 94.1815 386.8 92.466C386.8 90.7504 385.418 89.3598 383.713 89.3598C382.008 89.3598 380.625 90.7504 380.625 92.466C380.625 94.1815 382.008 95.5721 383.713 95.5721Z" fill="white"/>
<path d="M490.894 111.386V110.064L496.726 100.836H497.686V102.884H497.037L492.631 109.857V109.96H500.485V111.386H490.894ZM497.141 114.108V110.984V110.369V100.836H498.671V114.108H497.141Z" fill="#BAC5F4"/>
<path d="M422.508 114.108V112.941L426.888 108.146C427.403 107.584 427.826 107.096 428.159 106.681C428.491 106.262 428.738 105.869 428.897 105.502C429.062 105.13 429.144 104.741 429.144 104.335C429.144 103.869 429.031 103.465 428.807 103.123C428.586 102.782 428.284 102.518 427.899 102.333C427.515 102.147 427.083 102.054 426.603 102.054C426.093 102.054 425.648 102.16 425.268 102.372C424.892 102.579 424.601 102.871 424.393 103.246C424.19 103.622 424.089 104.063 424.089 104.569H422.559C422.559 103.791 422.739 103.108 423.097 102.521C423.456 101.933 423.944 101.475 424.562 101.147C425.184 100.818 425.882 100.654 426.655 100.654C427.433 100.654 428.122 100.818 428.722 101.147C429.323 101.475 429.794 101.918 430.135 102.475C430.477 103.033 430.647 103.653 430.647 104.335C430.647 104.823 430.559 105.301 430.381 105.767C430.209 106.23 429.906 106.746 429.474 107.316C429.046 107.882 428.452 108.574 427.692 109.39L424.711 112.579V112.682H430.88V114.108H422.508Z" fill="white"/>
<path d="M386.906 154.333L392.843 142.59V142.487H385.999V141.061H394.502V142.564L388.591 154.333H386.906Z" fill="#BAC5F4"/>
<path d="M489.179 141.108V154.38H487.572V142.792H487.494L484.253 144.944V143.311L487.572 141.108H489.179ZM497.325 154.561C496.348 154.561 495.517 154.296 494.83 153.764C494.143 153.228 493.618 152.453 493.255 151.438C492.892 150.418 492.711 149.187 492.711 147.744C492.711 146.309 492.892 145.084 493.255 144.069C493.622 143.05 494.149 142.272 494.836 141.736C495.528 141.196 496.357 140.926 497.325 140.926C498.293 140.926 499.12 141.196 499.807 141.736C500.498 142.272 501.025 143.05 501.388 144.069C501.755 145.084 501.939 146.309 501.939 147.744C501.939 149.187 501.758 150.418 501.395 151.438C501.032 152.453 500.507 153.228 499.82 153.764C499.133 154.296 498.301 154.561 497.325 154.561ZM497.325 153.136C498.293 153.136 499.044 152.669 499.58 151.736C500.116 150.803 500.384 149.472 500.384 147.744C500.384 146.594 500.261 145.616 500.014 144.808C499.772 144 499.422 143.384 498.964 142.961C498.511 142.538 497.964 142.326 497.325 142.326C496.366 142.326 495.616 142.799 495.076 143.745C494.536 144.687 494.266 146.02 494.266 147.744C494.266 148.893 494.387 149.869 494.629 150.673C494.871 151.477 495.219 152.088 495.672 152.507C496.13 152.926 496.681 153.136 497.325 153.136Z" fill="#BAC5F4"/>
<path d="M456.49 181.309V194.582H454.882V182.994H454.805L451.564 185.146V183.513L454.882 181.309H456.49ZM464.454 194.763C463.694 194.763 463.009 194.612 462.4 194.31C461.791 194.007 461.303 193.592 460.935 193.065C460.568 192.538 460.367 191.938 460.333 191.264H461.888C461.948 191.864 462.221 192.361 462.704 192.754C463.193 193.143 463.776 193.337 464.454 193.337C464.999 193.337 465.482 193.21 465.906 192.955C466.334 192.7 466.668 192.35 466.91 191.905C467.157 191.456 467.28 190.948 467.28 190.382C467.28 189.803 467.152 189.287 466.897 188.833C466.647 188.375 466.301 188.015 465.861 187.751C465.42 187.488 464.917 187.354 464.351 187.349C463.944 187.345 463.528 187.408 463.1 187.537C462.672 187.663 462.32 187.825 462.043 188.023L460.54 187.842L461.344 181.309H468.239V182.735H462.692L462.225 186.649H462.303C462.575 186.433 462.916 186.254 463.327 186.112C463.737 185.969 464.165 185.898 464.61 185.898C465.422 185.898 466.146 186.092 466.781 186.481C467.42 186.866 467.921 187.393 468.284 188.062C468.652 188.732 468.835 189.497 468.835 190.356C468.835 191.203 468.645 191.959 468.265 192.625C467.889 193.286 467.371 193.808 466.709 194.193C466.048 194.573 465.297 194.763 464.454 194.763Z" fill="#BAC5F4"/>
<path d="M560.693 182.863V196.135H559.086V184.548H559.009L555.768 186.699V185.066L559.086 182.863H560.693ZM568.762 196.316C567.872 196.316 567.086 196.159 566.403 195.843C565.725 195.524 565.195 195.085 564.815 194.528C564.435 193.966 564.247 193.327 564.251 192.609C564.247 192.048 564.357 191.529 564.582 191.054C564.807 190.574 565.113 190.175 565.502 189.855C565.895 189.531 566.334 189.326 566.818 189.239V189.162C566.183 188.998 565.677 188.641 565.301 188.092C564.925 187.539 564.74 186.911 564.744 186.207C564.74 185.533 564.91 184.93 565.256 184.398C565.601 183.867 566.077 183.448 566.682 183.141C567.291 182.834 567.984 182.681 568.762 182.681C569.531 182.681 570.218 182.834 570.823 183.141C571.428 183.448 571.903 183.867 572.248 184.398C572.598 184.93 572.776 185.533 572.78 186.207C572.776 186.911 572.583 187.539 572.203 188.092C571.827 188.641 571.328 188.998 570.706 189.162V189.239C571.186 189.326 571.618 189.531 572.002 189.855C572.387 190.175 572.693 190.574 572.922 191.054C573.151 191.529 573.268 192.048 573.272 192.609C573.268 193.327 573.074 193.966 572.689 194.528C572.309 195.085 571.78 195.524 571.101 195.843C570.427 196.159 569.648 196.316 568.762 196.316ZM568.762 194.891C569.362 194.891 569.881 194.793 570.317 194.599C570.754 194.405 571.091 194.13 571.328 193.776C571.566 193.422 571.687 193.007 571.691 192.532C571.687 192.03 571.557 191.588 571.302 191.203C571.047 190.819 570.7 190.516 570.259 190.296C569.823 190.075 569.324 189.965 568.762 189.965C568.196 189.965 567.69 190.075 567.245 190.296C566.805 190.516 566.457 190.819 566.202 191.203C565.951 191.588 565.828 192.03 565.833 192.532C565.828 193.007 565.943 193.422 566.176 193.776C566.414 194.13 566.753 194.405 567.194 194.599C567.634 194.793 568.157 194.891 568.762 194.891ZM568.762 188.591C569.237 188.591 569.658 188.496 570.026 188.306C570.397 188.116 570.689 187.85 570.9 187.509C571.112 187.168 571.22 186.768 571.224 186.31C571.22 185.861 571.114 185.47 570.907 185.137C570.7 184.8 570.412 184.541 570.045 184.36C569.678 184.174 569.25 184.081 568.762 184.081C568.265 184.081 567.831 184.174 567.459 184.36C567.088 184.541 566.8 184.8 566.597 185.137C566.394 185.47 566.295 185.861 566.299 186.31C566.295 186.768 566.396 187.168 566.604 187.509C566.816 187.85 567.107 188.116 567.479 188.306C567.85 188.496 568.278 188.591 568.762 188.591Z" fill="#BAC5F4"/>
<path d="M501.866 255.117C500.889 255.117 500.058 254.851 499.371 254.32C498.684 253.784 498.159 253.009 497.796 251.993C497.433 250.974 497.251 249.742 497.251 248.299C497.251 246.865 497.433 245.64 497.796 244.625C498.163 243.605 498.69 242.828 499.377 242.292C500.068 241.752 500.898 241.482 501.866 241.482C502.833 241.482 503.661 241.752 504.348 242.292C505.039 242.828 505.566 243.605 505.929 244.625C506.296 245.64 506.48 246.865 506.48 248.299C506.48 249.742 506.298 250.974 505.935 251.993C505.573 253.009 505.048 253.784 504.361 254.32C503.674 254.851 502.842 255.117 501.866 255.117ZM501.866 253.691C502.833 253.691 503.585 253.225 504.121 252.291C504.657 251.358 504.924 250.028 504.924 248.299C504.924 247.15 504.801 246.172 504.555 245.364C504.313 244.556 503.963 243.94 503.505 243.517C503.052 243.093 502.505 242.882 501.866 242.882C500.906 242.882 500.157 243.355 499.617 244.301C499.077 245.243 498.807 246.576 498.807 248.299C498.807 249.449 498.928 250.425 499.17 251.229C499.412 252.032 499.759 252.644 500.213 253.063C500.671 253.482 501.222 253.691 501.866 253.691Z" fill="#BAC5F4"/>
</g>
</g>
<defs>
<clipPath id="clip0_7_192">
<rect width="591.518" height="450.233" fill="white" transform="translate(198.352)"/>
</clipPath>
<clipPath id="clip1_7_192">
<rect width="605.11" height="379.336" fill="white" transform="translate(0 63.9844)"/>
</clipPath>
<clipPath id="clip2_7_192">
<rect width="376.594" height="263.25" fill="white" transform="translate(259.594 21.0234)"/>
</clipPath>
</defs>
</svg>
