<svg width="1440" height="54" viewBox="0 0 1440 54" fill="none" xmlns="http://www.w3.org/2000/svg">
<path d="M6.10352e-05 27.0009C6.10352e-05 -5.99979 50.0001 -5.99981 50.0001 27.0009C50.0001 60.0015 99.5001 59.5002 99.5001 27.0009C99.5001 -5.49849 150 -4.99985 150 27.0009C150 62.0001 199.5 56.5001 199.5 27.0009C199.5 -4.50003 249.5 -6.50003 249.5 27.0009C249.5 60.5018 300 58.5018 300 27.0009" stroke="#004AAD" stroke-width="3" stroke-dasharray="4 4"/>
<path d="M600 27.0009C600 -5.99979 650 -5.99981 650 27.0009C650 60.0015 699.5 59.5002 699.5 27.0009C699.5 -5.49849 750 -4.99985 750 27.0009C750 62.0001 799.5 56.5001 799.5 27.0009C799.5 -4.50003 849.5 -6.50003 849.5 27.0009C849.5 60.5018 900 58.5018 900 27.0009" stroke="#004AAD" stroke-width="3" stroke-dasharray="4 4"/>
<path d="M1200 27.0009C1200 -5.99979 1250 -5.99981 1250 27.0009C1250 60.0015 1299.5 59.5002 1299.5 27.0009C1299.5 -5.49849 1350 -4.99985 1350 27.0009C1350 62.0001 1399.5 56.5001 1399.5 27.0009C1399.5 -4.50003 1449.5 -6.50003 1449.5 27.0009C1449.5 60.5018 1500 58.5018 1500 27.0009" stroke="#004AAD" stroke-width="3" stroke-dasharray="4 4"/>
<path d="M300 27.0009C300 -5.99979 350 -5.99981 350 27.0009C350 60.0015 399.5 59.5002 399.5 27.0009C399.5 -5.49849 450 -4.99985 450 27.0009C450 62.0001 499.5 56.5001 499.5 27.0009C499.5 -4.50003 549.5 -6.50003 549.5 27.0009C549.5 60.5018 600 58.5018 600 27.0009" stroke="#004AAD" stroke-width="3" stroke-dasharray="4 4"/>
<path d="M900 27.0009C900 -5.99979 950 -5.99981 950 27.0009C950 60.0015 999.5 59.5002 999.5 27.0009C999.5 -5.49849 1050 -4.99985 1050 27.0009C1050 62.0001 1099.5 56.5001 1099.5 27.0009C1099.5 -4.50003 1149.5 -6.50003 1149.5 27.0009C1149.5 60.5018 1200 58.5018 1200 27.0009" stroke="#004AAD" stroke-width="3" stroke-dasharray="4 4"/>
</svg>
